<!-- Mostly AI generated but took me far too much prompts till I was "happy" + manual tweaking -->
<svg xmlns="http://www.w3.org/2000/svg" viewBox="0 0 100 100" width="256" height="256">
  <g transform="translate(-28 -12.5)
                scale(1.95)">
    <!-- Clipboard -->
    <rect x="16" y="8" width="32" height="48" rx="4" ry="4" fill="#b58b63" stroke="#5a3e2b" stroke-width="2"/>

    <!-- Paper sheet -->
    <rect x="20" y="14" width="24" height="36" rx="2" fill="#ffffff" stroke="#ccc" stroke-width="1"/>

    <!-- Ruled lines -->
    <g stroke="#d0d0d0" stroke-width="0.5">
      <line x1="22" y1="18" x2="42" y2="18"/>
      <line x1="22" y1="22" x2="42" y2="22"/>
      <line x1="22" y1="26" x2="42" y2="26"/>
      <line x1="22" y1="30" x2="42" y2="30"/>
      <line x1="22" y1="34" x2="42" y2="34"/>
      <line x1="22" y1="38" x2="42" y2="38"/>
      <line x1="22" y1="42" x2="42" y2="42"/>
      <line x1="22" y1="46" x2="42" y2="46"/>
      <line x1="22" y1="50" x2="42" y2="50"/>
    </g>

    <!-- Clip -->
    <rect x="26" y="8" width="12" height="6" rx="2" fill="#dcdcdc" stroke="#444" stroke-width="1"/>
    <line x1="26" y1="11" x2="38" y2="11" stroke="#aaa" stroke-width="1"/>
  </g>
  <g transform="translate(-153 -125)
                scale(5.6)">
    <!-- Magnifying Glass -->
    <circle cx="37" cy="32" r="5" fill="rgba(173,216,230,0.4)" stroke="#333" stroke-width="2"/>
    <line x1="40" y1="36" x2="44" y2="39" stroke="#333" stroke-width="2" stroke-linecap="round"/>
  </g>
</svg>
