<!-- Mostly AI generated but took me far too much prompts till I was "happy" + manual tweaking -->
<svg xmlns="http://www.w3.org/2000/svg" viewBox="0 0 64 64" width="256" height="256" transform="scale(1.26)">
  <!-- Clipboard -->
  <rect x="16" y="8" width="32" height="48" rx="4" ry="4" fill="#b58b63" stroke="#5a3e2b" stroke-width="2"/>

  <!-- Paper sheet -->
  <rect x="20" y="14" width="24" height="36" rx="2" fill="#ffffff" stroke="#ccc" stroke-width="1"/>

  <!-- Ruled lines -->
  <g stroke="#d0d0d0" stroke-width="0.5">
    <line x1="22" y1="18" x2="42" y2="18"/>
    <line x1="22" y1="22" x2="42" y2="22"/>
    <line x1="22" y1="26" x2="42" y2="26"/>
    <line x1="22" y1="30" x2="42" y2="30"/>
    <line x1="22" y1="34" x2="42" y2="34"/>
    <line x1="22" y1="38" x2="42" y2="38"/>
    <line x1="22" y1="42" x2="42" y2="42"/>
    <line x1="22" y1="46" x2="42" y2="46"/>
    <line x1="22" y1="50" x2="42" y2="50"/>
  </g>

  <!-- Clip -->
  <rect x="26" y="8" width="12" height="6" rx="2" fill="#dcdcdc" stroke="#444" stroke-width="1"/>
  <line x1="26" y1="11" x2="38" y2="11" stroke="#aaa" stroke-width="1"/>

  <!-- Nerd Group (centered in clipboard) -->
  <g transform="translate(32,32) scale(1.5) translate(-34,-32)">
    <!-- Head (no dark border around face) -->
    <circle cx="32" cy="32" r="8" fill="#ffe0bd" stroke="#333" stroke-width="0.5"/>

    <!-- Blond Hair -->
    <path d="M24 30 Q32 22 40 30 Q38 24 26 24 Q24 27 24 30 Z" fill="#f4d35e" transform="scale(1.1) translate(0,-3)"/>
  <path d="M50,10
           C40,10 35,30 30,25
           C25,20 20,40 25,35
           C30,30 25,45 30,45
           C35,45 40,50 45,45
           C50,40 55,50 60,45
           C65,45 70,40 65,35
           C60,30 55,25 50,30
           C45,35 40,25 50,10"
        fill="#f4d35e" transform="scale(0.3) translate(60,50)"/>



    <!-- Glasses (resized back) -->
    <rect x="26" y="29" width="6" height="6" rx="1.5" fill="#fff" stroke="#000" stroke-width="1.5"/>
    <rect x="32" y="29" width="6" height="6" rx="1.5" fill="#fff" stroke="#000" stroke-width="1.5"/>


    <!-- Eyes -->
    <circle cx="29" cy="32" r="1" fill="#000"/>
    <circle cx="35" cy="32" r="1" fill="#000"/>

    <!-- Teeth -->
    <rect x="30" y="36" width="4" height="3" rx="0.5" fill="#fff" stroke="#000" stroke-width="0.5"/>
    <line x1="32" y1="36" x2="32" y2="39"  stroke="#000" stroke-width="0.5"/>

    <!-- Chin Shadow -->
    <ellipse cx="32" cy="41" rx="4" ry="1.2" fill="rgba(0,0,0,0.2)"/>

    <!-- Magnifying Glass -->
    <circle cx="37" cy="32" r="5" fill="rgba(173,216,230,0.4)" stroke="#333" stroke-width="2"/>
    <line x1="40" y1="36" x2="44" y2="39" stroke="#333" stroke-width="2" stroke-linecap="round"/>
  </g>
</svg>

